Normalized EMG Linear Envelopes
nRows=49
nColumns=17

endheader
time	        VM	        VL	        RF	       GRA	        TA	   ADDLONG	   SEMIMEM	      BFLH	        GM	        GL	       TFL	   GLUTMAX	   GLUTMED	      PIRI	    OBTINT	        QF	
1.589	  0.014179	  0.000000	  0.029130	  0.117165	  0.039748	  0.030362	  0.101993	  0.074869	  0.140514	  0.049962	  0.011486	  0.042325	  0.083868	  0.290429	  1.772981	  0.086516	
1.5895	  0.014124	  0.000000	  0.027489	  0.118432	  0.039152	  0.030308	  0.104544	  0.076403	  0.141926	  0.050670	  0.010860	  0.042413	  0.083779	  0.289948	  1.777839	  0.087467	
1.59	  0.014081	  0.000000	  0.025890	  0.119744	  0.038575	  0.030262	  0.107137	  0.077963	  0.143331	  0.051383	  0.010252	  0.042500	  0.083697	  0.289462	  1.782681	  0.088438	
1.5905	  0.014053	  0.000000	  0.024330	  0.121101	  0.038018	  0.030226	  0.109772	  0.079551	  0.144730	  0.052101	  0.009661	  0.042587	  0.083621	  0.288970	  1.787500	  0.089430	
1.591	  0.014038	  0.000000	  0.022811	  0.122503	  0.037481	  0.030200	  0.112448	  0.081164	  0.146121	  0.052822	  0.009087	  0.042672	  0.083550	  0.288472	  1.792293	  0.090444	
1.5915	  0.014036	  0.000000	  0.021332	  0.123949	  0.036964	  0.030183	  0.115166	  0.082805	  0.147505	  0.053547	  0.008530	  0.042757	  0.083485	  0.287968	  1.797052	  0.091479	
1.592	  0.014049	  0.000000	  0.019891	  0.125441	  0.036466	  0.030175	  0.117925	  0.084471	  0.148881	  0.054276	  0.007989	  0.042839	  0.083423	  0.287458	  1.801773	  0.092535	
1.5925	  0.014075	  0.000000	  0.018489	  0.126977	  0.035988	  0.030177	  0.120725	  0.086163	  0.150249	  0.055008	  0.007464	  0.042921	  0.083366	  0.286941	  1.806448	  0.093613	
1.593	  0.014115	  0.000000	  0.017125	  0.128557	  0.035530	  0.030188	  0.123565	  0.087881	  0.151609	  0.055742	  0.006956	  0.043000	  0.083312	  0.286419	  1.811072	  0.094713	
1.5935	  0.014169	  0.000000	  0.015799	  0.130182	  0.035091	  0.030209	  0.126446	  0.089625	  0.152962	  0.056480	  0.006463	  0.043077	  0.083261	  0.285889	  1.815638	  0.095835	
1.594	  0.014237	  0.000000	  0.014510	  0.131851	  0.034672	  0.030239	  0.129366	  0.091393	  0.154306	  0.057220	  0.005985	  0.043153	  0.083212	  0.285352	  1.820139	  0.096978	
1.5945	  0.014319	  0.000000	  0.013257	  0.133563	  0.034272	  0.030278	  0.132325	  0.093187	  0.155643	  0.057961	  0.005522	  0.043225	  0.083165	  0.284809	  1.824568	  0.098143	
1.595	  0.014415	  0.000000	  0.012041	  0.135319	  0.033891	  0.030326	  0.135323	  0.095004	  0.156971	  0.058705	  0.005074	  0.043295	  0.083118	  0.284257	  1.828918	  0.099331	
1.5955	  0.014526	  0.000000	  0.010860	  0.137118	  0.033530	  0.030383	  0.138360	  0.096846	  0.158293	  0.059450	  0.004641	  0.043363	  0.083072	  0.283698	  1.833180	  0.100540	
1.596	  0.014651	  0.000000	  0.009714	  0.138959	  0.033187	  0.030449	  0.141435	  0.098712	  0.159607	  0.060196	  0.004222	  0.043427	  0.083025	  0.283130	  1.837348	  0.101772	
1.5965	  0.014790	  0.000000	  0.008603	  0.140843	  0.032864	  0.030525	  0.144547	  0.100601	  0.160913	  0.060944	  0.003817	  0.043489	  0.082978	  0.282554	  1.841411	  0.103025	
1.597	  0.014944	  0.000000	  0.007526	  0.142768	  0.032560	  0.030608	  0.147697	  0.102513	  0.162213	  0.061692	  0.003426	  0.043547	  0.082928	  0.281969	  1.845363	  0.104301	
1.5975	  0.015113	  0.000000	  0.006482	  0.144735	  0.032274	  0.030701	  0.150883	  0.104447	  0.163506	  0.062440	  0.003049	  0.043603	  0.082877	  0.281376	  1.849193	  0.105599	
1.598	  0.015296	  0.000000	  0.005472	  0.146742	  0.032007	  0.030802	  0.154105	  0.106403	  0.164792	  0.063188	  0.002685	  0.043655	  0.082822	  0.280773	  1.852893	  0.106918	
1.5985	  0.015494	  0.000000	  0.004494	  0.148790	  0.031759	  0.030912	  0.157363	  0.108381	  0.166073	  0.063937	  0.002334	  0.043705	  0.082763	  0.280162	  1.856452	  0.108259	
1.599	  0.015707	  0.000000	  0.003548	  0.150877	  0.031530	  0.031030	  0.160656	  0.110380	  0.167347	  0.064685	  0.001995	  0.043751	  0.082700	  0.279541	  1.859860	  0.109622	
1.5995	  0.015935	  0.000000	  0.002633	  0.153003	  0.031319	  0.031156	  0.163983	  0.112399	  0.168617	  0.065434	  0.001669	  0.043794	  0.082632	  0.278912	  1.863106	  0.111007	
1.6	  0.016177	  0.000000	  0.001750	  0.155167	  0.031126	  0.031290	  0.167344	  0.114438	  0.169881	  0.066181	  0.001356	  0.043833	  0.082558	  0.278273	  1.866178	  0.112413	
1.6005	  0.016435	  0.000000	  0.000897	  0.157369	  0.030952	  0.031432	  0.170738	  0.116496	  0.171140	  0.066929	  0.001054	  0.043870	  0.082479	  0.277626	  1.869065	  0.113841	
1.601	  0.016708	  0.000000	  0.000074	  0.159607	  0.030795	  0.031582	  0.174165	  0.118574	  0.172396	  0.067676	  0.000765	  0.043904	  0.082393	  0.276970	  1.871755	  0.115290	
1.6015	  0.016996	  0.000000	  0.000000	  0.161882	  0.030657	  0.031740	  0.177624	  0.120669	  0.173649	  0.068422	  0.000486	  0.043934	  0.082301	  0.276305	  1.874233	  0.116760	
1.602	  0.017300	  0.000000	  0.000000	  0.164192	  0.030537	  0.031905	  0.181114	  0.122782	  0.174900	  0.069167	  0.000220	  0.043961	  0.082202	  0.275632	  1.876489	  0.118251	
1.6025	  0.017619	  0.000000	  0.000000	  0.166537	  0.030435	  0.032078	  0.184634	  0.124911	  0.176150	  0.069912	  0.000000	  0.043985	  0.082095	  0.274949	  1.878508	  0.119762	
1.603	  0.017953	  0.000000	  0.000000	  0.168916	  0.030350	  0.032259	  0.188184	  0.127057	  0.177398	  0.070656	  0.000000	  0.044006	  0.081981	  0.274258	  1.880279	  0.121293	
1.6035	  0.018303	  0.000000	  0.000000	  0.171328	  0.030284	  0.032447	  0.191763	  0.129218	  0.178647	  0.071398	  0.000000	  0.044024	  0.081859	  0.273558	  1.881788	  0.122844	
1.604	  0.018668	  0.000000	  0.000000	  0.173773	  0.030234	  0.032642	  0.195369	  0.131394	  0.179897	  0.072140	  0.000000	  0.044038	  0.081728	  0.272849	  1.883022	  0.124414	
1.6045	  0.019049	  0.000000	  0.000000	  0.176250	  0.030202	  0.032844	  0.199002	  0.133583	  0.181148	  0.072881	  0.000000	  0.044049	  0.081588	  0.272131	  1.883970	  0.126003	
1.605	  0.019446	  0.000000	  0.000000	  0.178758	  0.030187	  0.033053	  0.202662	  0.135785	  0.182401	  0.073621	  0.000000	  0.044057	  0.081440	  0.271405	  1.884620	  0.127611	
1.6055	  0.019858	  0.000000	  0.000000	  0.181297	  0.030189	  0.033269	  0.206346	  0.138000	  0.183657	  0.074360	  0.000000	  0.044062	  0.081281	  0.270671	  1.884961	  0.129236	
1.606	  0.020287	  0.000000	  0.000000	  0.183864	  0.030208	  0.033492	  0.210054	  0.140226	  0.184916	  0.075098	  0.000000	  0.044063	  0.081114	  0.269929	  1.884983	  0.130879	
1.6065	  0.020731	  0.000000	  0.000000	  0.186461	  0.030244	  0.033721	  0.213785	  0.142462	  0.186180	  0.075836	  0.000000	  0.044061	  0.080937	  0.269180	  1.884677	  0.132539	
1.607	  0.021191	  0.000000	  0.000000	  0.189085	  0.030297	  0.033957	  0.217538	  0.144707	  0.187447	  0.076572	  0.000000	  0.044057	  0.080750	  0.268424	  1.884034	  0.134215	
1.6075	  0.021666	  0.000000	  0.000000	  0.191736	  0.030366	  0.034199	  0.221311	  0.146961	  0.188720	  0.077309	  0.000000	  0.044049	  0.080553	  0.267661	  1.883050	  0.135906	
1.608	  0.022158	  0.000000	  0.000000	  0.194413	  0.030451	  0.034447	  0.225104	  0.149223	  0.189998	  0.078044	  0.000000	  0.044039	  0.080346	  0.266894	  1.881718	  0.137612	
1.6085	  0.022666	  0.000000	  0.000000	  0.197115	  0.030553	  0.034702	  0.228914	  0.151491	  0.191282	  0.078779	  0.000000	  0.044026	  0.080130	  0.266120	  1.880033	  0.139332	
1.609	  0.023190	  0.000000	  0.000000	  0.199841	  0.030670	  0.034962	  0.232742	  0.153765	  0.192572	  0.079514	  0.000000	  0.044011	  0.079904	  0.265342	  1.877993	  0.141066	
1.6095	  0.023730	  0.000000	  0.000000	  0.202591	  0.030804	  0.035229	  0.236585	  0.156044	  0.193868	  0.080248	  0.000000	  0.043993	  0.079668	  0.264560	  1.875592	  0.142812	
1.61	  0.024286	  0.000000	  0.000000	  0.205362	  0.030953	  0.035501	  0.240442	  0.158327	  0.195171	  0.080981	  0.000000	  0.043974	  0.079422	  0.263773	  1.872827	  0.144571	
1.6105	  0.024858	  0.000000	  0.000000	  0.208155	  0.031117	  0.035779	  0.244312	  0.160613	  0.196481	  0.081713	  0.000000	  0.043953	  0.079167	  0.262983	  1.869695	  0.146340	
1.611	  0.025446	  0.000000	  0.000000	  0.210969	  0.031297	  0.036062	  0.248195	  0.162902	  0.197798	  0.082445	  0.000000	  0.043930	  0.078901	  0.262189	  1.866194	  0.148119	
1.6115	  0.026050	  0.000000	  0.000000	  0.213801	  0.031491	  0.036351	  0.252088	  0.165193	  0.199123	  0.083175	  0.000000	  0.043906	  0.078626	  0.261392	  1.862323	  0.149907	
1.612	  0.026671	  0.000000	  0.000000	  0.216652	  0.031701	  0.036646	  0.255991	  0.167484	  0.200454	  0.083905	  0.000000	  0.043882	  0.078342	  0.260591	  1.858082	  0.151703	
1.6125	  0.027308	  0.000000	  0.000000	  0.219520	  0.031925	  0.036946	  0.259902	  0.169776	  0.201793	  0.084633	  0.000000	  0.043856	  0.078047	  0.259788	  1.853472	  0.153507	
1.613	  0.027961	  0.000000	  0.000000	  0.222405	  0.032163	  0.037251	  0.263821	  0.172067	  0.203139	  0.085360	  0.000000	  0.043831	  0.077742	  0.258982	  1.848496	  0.155317	
